HIERARCHY
ROOT Hips
{
	OFFSET 0.000000 0.000000 0.000000
	CHANNELS 6 Xposition Yposition Zposition Zrotation Yrotation Xrotation 
	JOINT LHipJoint
	{
		OFFSET 0.000000 0.000000 0.000000
		CHANNELS 3 Zrotation Yrotation Xrotation
		JOINT LeftUpLeg
		{
			OFFSET 1.363060 -1.794630 0.839290
			CHANNELS 3 Zrotation Yrotation Xrotation
			JOINT LeftLeg
			{
				OFFSET 2.448110 -6.726130 0.000000
				CHANNELS 3 Zrotation Yrotation Xrotation
				JOINT LeftFoot
				{
					OFFSET 2.562200 -7.039590 0.000000
					CHANNELS 3 Zrotation Yrotation Xrotation
					JOINT LeftToeBase
					{
						OFFSET 0.157640 -0.433110 2.322550
						CHANNELS 3 Zrotation Yrotation Xrotation
						End Site
						{
							OFFSET 0.000000 0.000000 0.000000
						}
					}
				}
			}
		}
	}
	JOINT RHipJoint
	{
		OFFSET 0.000000 0.000000 0.000000
		CHANNELS 3 Zrotation Yrotation Xrotation
		JOINT RightUpLeg
		{
			OFFSET -1.305520 -1.794630 0.839290
			CHANNELS 3 Zrotation Yrotation Xrotation
			JOINT RightLeg
			{
				OFFSET -2.542530 -6.985550 0.000000
				CHANNELS 3 Zrotation Yrotation Xrotation
				JOINT RightFoot
				{
					OFFSET -2.568260 -7.056230 0.000000
					CHANNELS 3 Zrotation Yrotation Xrotation
					JOINT RightToeBase
					{
						OFFSET -0.164730 -0.452590 2.363150
						CHANNELS 3 Zrotation Yrotation Xrotation
						End Site
						{
							OFFSET 0.000000 0.000000 0.000000
						}
					}
				}
			}
		}
	}
	JOINT LowerBack
	{
		OFFSET 0.000000 0.000000 0.000000
		CHANNELS 3 Zrotation Yrotation Xrotation
		JOINT Spine
		{
			OFFSET 0.028270 2.035590 -0.193380
			CHANNELS 3 Zrotation Yrotation Xrotation
			JOINT Spine1
			{
				OFFSET 0.056720 2.048850 -0.042750
				CHANNELS 3 Zrotation Yrotation Xrotation
				JOINT Neck
				{
					OFFSET 0.000000 0.000000 0.000000
					CHANNELS 3 Zrotation Yrotation Xrotation
					JOINT Neck1
					{
						OFFSET -0.054170 1.746240 0.172020
						CHANNELS 3 Zrotation Yrotation Xrotation
						JOINT Head
						{
							OFFSET 0.104070 1.761360 -0.123970
							CHANNELS 3 Zrotation Yrotation Xrotation
							End Site
							{
								OFFSET 0.000000 0.000000 0.000000
							}
						}
					}
				}
				JOINT LeftShoulder
				{
					OFFSET 0.000000 0.000000 0.000000
					CHANNELS 3 Zrotation Yrotation Xrotation
					JOINT LeftArm
					{
						OFFSET 3.362410 1.200890 -0.311210
						CHANNELS 3 Zrotation Yrotation Xrotation
						JOINT LeftForeArm
						{
							OFFSET 4.983000 -0.000000 -0.000000
							CHANNELS 3 Zrotation Yrotation Xrotation
							JOINT LeftHand
							{
								OFFSET 3.483560 -0.000000 -0.000000
								CHANNELS 3 Zrotation Yrotation Xrotation
								JOINT LeftFingerBase
								{
									OFFSET 0.000000 0.000000 0.000000
									CHANNELS 3 Zrotation Yrotation Xrotation
									JOINT LeftHandIndex1
									{
										OFFSET 0.715260 -0.000000 -0.000000
										CHANNELS 3 Zrotation Yrotation Xrotation
										End Site
										{
											OFFSET 0.000000 0.000000 0.000000
										}
									}
								}
								JOINT LThumb
								{
									OFFSET 0.000000 0.000000 0.000000
									CHANNELS 3 Zrotation Yrotation Xrotation
									End Site
									{
										OFFSET 0.000000 0.000000 0.000000
									}
								}
							}
						}
					}
				}
				JOINT RightShoulder
				{
					OFFSET 0.000000 0.000000 0.000000
					CHANNELS 3 Zrotation Yrotation Xrotation
					JOINT RightArm
					{
						OFFSET -3.136600 1.374050 -0.404650
						CHANNELS 3 Zrotation Yrotation Xrotation
						JOINT RightForeArm
						{
							OFFSET -5.241900 -0.000000 -0.000000
							CHANNELS 3 Zrotation Yrotation Xrotation
							JOINT RightHand
							{
								OFFSET -3.444170 -0.000000 -0.000000
								CHANNELS 3 Zrotation Yrotation Xrotation
								JOINT RightFingerBase
								{
									OFFSET 0.000000 0.000000 0.000000
									CHANNELS 3 Zrotation Yrotation Xrotation
									JOINT RightHandIndex1
									{
										OFFSET -0.622530 -0.000000 -0.000000
										CHANNELS 3 Zrotation Yrotation Xrotation
										End Site
										{
											OFFSET 0.000000 0.000000 0.000000
										}
									}
								}
								JOINT RThumb
								{
									OFFSET 0.000000 0.000000 0.000000
									CHANNELS 3 Zrotation Yrotation Xrotation
									End Site
									{
										OFFSET 0.000000 0.000000 0.000000
									}
								}
							}
						}
					}
				}
			}
		}
	}
}
MOTION
Frames: 11
Frame Time: 0.008333
7.110057 17.957953 -29.531167 -176.469402 -1.788865 -172.064491 -4.300616 -4.890951 -1.350171 -9.977475 6.586185 -19.296995 0.744803 9.806265 26.038775 3.534380 -15.658959 13.394784 0.029900 1.117100 3.071100 1.125372 3.679472 -3.330842 22.461596 5.590451 -4.584570 -0.024296 -7.903145 18.253765 0.343561 -5.580589 -3.174373 -0.101700 2.056200 -5.661000 -1.424306 1.136691 -2.300416 0.292951 1.347025 -4.686730 -1.931984 0.866859 3.697331 -4.910226 2.655383 -3.100843 4.685954 2.236046 17.501584 1.741700 1.019600 3.171900 -1.068156 -8.604322 2.648239 -74.053588 -6.313724 31.362904 14.500799 -20.324704 -2.801106 0.273590 0.337659 -15.985326 13.957704 -9.672712 -2.392900 -7.125000 0.000000 0.000000 -9.521400 19.823400 5.808300 0.716193 9.157441 2.595746 83.754721 -5.795819 28.768382 -13.440136 17.399841 -3.210242 1.837795 1.801222 0.214551 -6.874972 -30.356546 4.631500 7.125000 0.000000 0.000000 26.937500 -60.254700 -10.470700 
7.105333 17.931019 -29.546443 -176.429644 -1.850006 -172.173318 -4.289081 -4.885028 -1.244390 -10.082575 7.493210 -19.117861 0.677582 9.634913 25.595741 3.562752 -16.265806 14.730898 0.219600 3.016700 8.325300 1.128838 3.672364 -3.339824 22.649593 5.780458 -4.598922 -0.070865 -8.167130 18.965533 0.391721 -5.855411 -4.268281 -0.232400 3.102400 -8.564100 -1.245677 1.181132 -2.151033 0.275670 1.374901 -4.795708 -2.064145 0.887912 3.344622 -5.211042 2.788152 -2.905170 4.974571 2.379388 17.025453 1.895500 1.093600 2.973300 -1.075561 -8.642735 2.636486 -74.145703 -6.056805 31.595092 14.851232 -20.747297 -2.910332 0.258753 0.304034 -16.220007 13.640038 -8.945907 -2.162100 -7.125000 0.000000 0.000000 -9.757700 20.606700 5.782300 0.690423 9.126525 2.574233 83.889067 -6.169192 28.364699 -13.375480 17.338479 -3.207049 1.853888 1.808026 0.477625 -6.863024 -30.627982 4.665400 7.125000 0.000000 0.000000 27.201100 -60.503700 -10.745200 
7.101012 17.901371 -29.559609 -176.393461 -1.924307 -172.293005 -4.280995 -4.873696 -1.146319 -10.168229 8.252128 -18.880559 0.610064 9.472212 25.168023 3.582085 -16.782288 16.070251 0.538400 4.701500 13.059000 1.131512 3.668692 -3.351865 22.838203 5.985489 -4.653219 -0.133170 -8.464825 19.778849 0.429488 -6.085711 -5.377189 -0.311100 3.585500 -9.913200 -1.113531 1.171411 -2.055830 0.272100 1.343626 -4.867573 -2.160709 0.874035 3.112132 -5.259846 2.829797 -2.796408 4.997006 2.475787 16.503198 1.908300 1.153900 2.779700 -1.072722 -8.657682 2.625024 -74.298275 -5.937033 31.432114 15.095044 -21.038684 -3.005007 0.266212 0.319566 -16.118801 14.113052 -9.307710 -2.331100 -7.125000 0.000000 0.000000 -9.415200 20.202300 5.660600 0.677049 9.119468 2.561117 84.014198 -6.390183 27.799943 -13.286199 17.248545 -3.202035 1.861215 1.833041 0.941255 -6.500020 -31.050135 4.520400 7.125000 0.000000 0.000000 28.016700 -60.822400 -11.311600 
7.095283 17.873834 -29.571769 -176.350638 -1.983137 -172.424906 -4.285693 -4.853663 -1.051505 -10.237521 8.824616 -18.528940 0.524906 9.289942 24.652962 3.592200 -16.940682 17.247792 0.960300 6.239900 17.482200 1.133569 3.666945 -3.366291 23.029218 6.128456 -4.844275 -0.224993 -8.828069 20.785624 0.456485 -6.275689 -6.454295 -0.337300 3.732100 -10.324100 -1.000650 1.129364 -1.996447 0.284027 1.277658 -4.914164 -2.219362 0.838327 2.959376 -5.134129 2.707251 -2.694239 4.583485 2.454194 15.894173 1.741400 1.155700 2.564300 -1.063615 -8.647977 2.610742 -74.525641 -5.928822 31.081898 15.188121 -21.144525 -3.065387 0.287731 0.378173 -16.005045 15.315507 -10.615978 -2.895500 -7.125000 0.000000 0.000000 -8.557200 18.746400 5.413700 0.674440 9.137029 2.559099 84.065712 -6.487549 27.306641 -13.172213 17.129183 -3.186862 1.849380 1.875232 1.358161 -5.792817 -31.465720 4.170300 7.125000 0.000000 0.000000 29.232300 -61.062000 -12.018900 
7.083725 17.845693 -29.593176 -176.278638 -1.789643 -172.808225 -4.292978 -4.815712 -0.937571 -10.299623 9.407460 -17.908008 0.467090 9.153057 24.229562 3.595051 -16.922022 17.864360 1.329000 7.300400 20.608500 1.128103 3.659200 -3.391736 23.277579 6.193173 -4.638576 -0.306143 -9.134450 21.627166 0.461667 -6.348171 -7.407429 -0.334700 3.717800 -10.284000 -0.810664 1.165693 -1.798624 0.296988 1.315505 -4.899101 -2.281722 0.859832 2.866604 -5.127360 2.709037 -2.510244 4.382582 2.547979 15.192140 1.665300 1.216800 2.295100 -1.058963 -8.653797 2.602109 -74.830470 -5.871307 30.708162 15.306954 -21.284667 -3.126546 0.300343 0.410467 -16.025942 16.077218 -11.429710 -3.278500 -7.125000 0.000000 0.000000 -8.029000 17.831500 5.236500 0.671976 9.134678 2.561672 84.057748 -6.572646 26.807916 -13.062193 17.006322 -3.156192 1.829469 1.897167 1.833462 -5.060761 -31.563542 3.758200 7.125000 0.000000 0.000000 30.160600 -61.002400 -12.397800 
7.070057 17.784187 -29.613075 -176.172382 -1.386584 -173.344570 -4.293657 -4.757055 -0.796938 -10.354339 9.883022 -16.845727 0.401923 9.029869 23.840918 3.585134 -16.748165 19.178153 2.667900 10.136900 29.421300 1.113137 3.645545 -3.430084 23.540322 6.201792 -4.170898 -0.383540 -9.394140 22.335918 0.422361 -6.127298 -8.150424 -0.344400 3.770900 -10.433100 -0.545287 1.294003 -1.545086 0.302471 1.476417 -4.820203 -2.369836 0.946038 2.885635 -5.144514 2.958146 -2.611038 4.698753 2.858261 14.917276 1.767000 1.391700 2.215800 -1.053055 -8.675736 2.601077 -75.159162 -5.873837 30.296061 15.471436 -21.477242 -3.188269 0.302059 0.410540 -16.060068 16.219863 -11.511243 -3.331900 -7.125000 0.000000 0.000000 -7.930500 17.738100 5.187400 0.673649 9.115336 2.563665 84.055525 -6.629180 26.115278 -12.971731 16.895855 -3.115067 1.816105 1.883682 2.492567 -4.533835 -31.329624 3.426300 7.125000 0.000000 0.000000 30.515100 -60.683100 -12.325900 
7.058701 17.777252 -29.633979 -176.092968 -1.071733 -173.843176 -4.307920 -4.708299 -0.714647 -10.304131 10.033483 -16.086879 0.381366 8.961137 23.570998 3.574783 -16.553909 18.691427 2.562300 9.950200 28.815700 1.107561 3.633188 -3.451492 23.735737 6.113496 -3.598895 -0.432987 -9.555986 22.777744 0.379901 -5.893786 -8.752234 -0.368500 3.899200 -10.793100 -0.297379 1.412343 -1.241113 0.301800 1.624638 -4.758190 -2.467871 1.023674 2.844804 -5.149629 2.907180 -2.401744 4.510986 2.869686 14.234935 1.698600 1.408800 1.952700 -1.051497 -8.685533 2.597133 -75.475180 -5.930481 29.963049 15.555235 -21.566996 -3.221870 0.304788 0.416870 -16.143976 16.408149 -11.705578 -3.428700 -7.125000 0.000000 0.000000 -7.802000 17.519100 5.139600 0.667653 9.110281 2.569748 84.061114 -6.758499 25.594409 -12.949380 16.869758 -3.102426 1.815398 1.869569 2.708838 -4.483854 -31.190154 3.381600 7.125000 0.000000 0.000000 30.430300 -60.545700 -12.187500 
7.055484 17.778659 -29.647045 -175.981791 -1.039487 -174.093367 -4.322774 -4.673070 -0.668833 -10.177866 9.956151 -15.608783 0.356786 8.893099 23.332557 3.572647 -16.403958 18.348579 2.427200 9.704400 28.024500 1.103437 3.623679 -3.460129 23.933516 6.122394 -3.236833 -0.458347 -9.656144 23.048129 0.366805 -5.866147 -9.232920 -0.435000 4.232500 -11.731800 -0.112830 1.411133 -1.086046 0.338362 1.617667 -4.757153 -2.493866 1.019943 2.754954 -4.903554 2.841772 -2.306796 4.057483 2.913636 13.663797 1.493900 1.446300 1.756900 -1.037193 -8.663844 2.581509 -75.809492 -5.920297 29.641837 15.651453 -21.672768 -3.260531 0.302966 0.424548 -16.222134 16.694018 -11.825545 -3.529700 -7.125000 0.000000 0.000000 -7.603700 17.365900 5.032400 0.671289 9.132993 2.581439 84.020674 -6.917497 25.372294 -12.970241 16.901628 -3.117701 1.825705 1.870818 2.483115 -4.774060 -31.297034 3.560300 7.125000 0.000000 0.000000 30.213100 -60.700900 -12.203400 
7.053374 17.784388 -29.660914 -175.867732 -1.002899 -174.290568 -4.336882 -4.644299 -0.644157 -10.035477 9.726860 -15.190740 0.347782 8.868796 23.219389 3.565351 -16.220326 17.847836 2.251900 9.372100 26.966500 1.102046 3.614104 -3.464656 24.105913 6.043475 -2.785215 -0.445871 -9.642746 22.994393 0.335947 -5.705957 -9.584748 -0.511700 4.585000 -12.728600 0.048849 1.395992 -1.056004 0.380586 1.593734 -4.735448 -2.492146 1.009769 2.793354 -4.816506 2.810250 -2.446759 3.806279 2.970549 13.268758 1.392700 1.489200 1.660500 -1.023039 -8.651625 2.566922 -76.136206 -5.944330 29.271830 15.799675 -21.842365 -3.313202 0.293130 0.421337 -16.313678 16.851724 -11.617209 -3.507600 -7.125000 0.000000 0.000000 -7.486900 17.569400 4.920000 0.680435 9.140783 2.588846 83.936002 -6.926506 25.202017 -12.935898 16.865762 -3.109687 1.830611 1.870395 2.241244 -4.991995 -31.288345 3.685800 7.125000 0.000000 0.000000 29.959200 -60.738700 -12.117000 
7.051866 17.786800 -29.675788 -175.758188 -0.999426 -174.527043 -4.348732 -4.613579 -0.621920 -9.881730 9.433252 -14.702024 0.339770 8.855202 23.135673 3.553857 -16.001474 17.428931 2.190500 9.252200 26.587400 1.101928 3.603980 -3.471389 24.291281 5.844670 -2.291337 -0.426651 -9.616167 22.900236 0.297063 -5.516479 -10.051947 -0.559900 4.792900 -13.318700 0.202238 1.392193 -1.030380 0.420301 1.586863 -4.680135 -2.483855 1.010504 2.917411 -4.870988 2.770290 -2.705264 3.769478 2.983263 12.918753 1.392300 1.510000 1.599000 -1.010945 -8.654084 2.557233 -76.425113 -6.062251 29.009297 15.888607 -21.942239 -3.346359 0.289386 0.421882 -16.436726 16.975176 -11.602939 -3.532100 -7.125000 0.000000 0.000000 -7.399000 17.574000 4.860500 0.690882 9.133350 2.592031 83.848395 -6.851023 24.980069 -12.884661 16.807404 -3.092089 1.820516 1.878701 1.945299 -4.983354 -31.218600 3.673900 7.125000 0.000000 0.000000 29.899800 -60.676400 -12.045700 
7.051263 17.787805 -29.689054 -175.700804 -1.053496 -174.788733 -4.362692 -4.583540 -0.597636 -9.778427 9.083123 -14.179036 0.327969 8.844890 23.060574 3.538388 -15.784721 17.141062 2.209800 9.290000 26.706600 1.102087 3.593627 -3.476778 24.443739 5.385939 -1.712897 -0.406247 -9.588123 22.803428 0.276800 -5.463634 -10.511465 -0.838300 5.840600 -16.322600 0.298610 1.398948 -0.895549 0.454251 1.594085 -4.655264 -2.453388 1.020558 2.905267 -5.053107 2.774261 -2.750297 3.967669 2.996977 12.386972 1.487400 1.528900 1.436900 -1.001225 -8.676571 2.545997 -76.771763 -6.101550 28.822252 15.919526 -21.973157 -3.366174 0.292918 0.437874 -16.449254 17.387233 -11.969517 -3.737400 -7.125000 0.000000 0.000000 -7.119200 17.147000 4.740900 0.690036 9.108938 2.590337 83.789592 -6.946493 24.766884 -12.914335 16.843585 -3.101564 1.807661 1.891147 1.584798 -4.984453 -31.209847 3.673200 7.125000 0.000000 0.000000 29.892600 -60.669900 -12.037900 
